HIERARCHY
ROOT Hip
{
  OFFSET 0.000000 0.000000 0.000000
  CHANNELS 6 Xposition Yposition Zposition Zrotation Xrotation Yrotation
  JOINT RHip
  {
    OFFSET -0.068429 -0.216903 0.057318
    CHANNELS 3 Xposition Yposition Zposition
    JOINT RKnee
    {
      OFFSET -0.144519 0.459626 0.029929
      CHANNELS 3 Xposition Yposition Zposition
      JOINT RFoot
      {
        OFFSET -0.055625 0.135083 0.161487
        CHANNELS 3 Xposition Yposition Zposition
        End Site
        {
          OFFSET 0.000000 0.050000 0.000000
        }
      }
    }
  }
  JOINT LHip
  {
    OFFSET 0.068413 0.216854 -0.057229
    CHANNELS 3 Xposition Yposition Zposition
    JOINT LKnee
    {
      OFFSET -0.277391 0.470637 0.121713
      CHANNELS 3 Xposition Yposition Zposition
      JOINT LFoot
      {
        OFFSET -0.462890 -0.480285 0.438247
        CHANNELS 3 Xposition Yposition Zposition
        End Site
        {
          OFFSET 0.000000 0.050000 0.000000
        }
      }
    }
  }
  JOINT Spine
  {
    OFFSET -0.225212 -0.048779 -0.121973
    CHANNELS 3 Xposition Yposition Zposition
    JOINT Thorax
    {
      OFFSET -0.110771 -0.036178 -0.024667
      CHANNELS 3 Xposition Yposition Zposition
      JOINT Nose
      {
        OFFSET 0.390969 -0.335796 0.007355
        CHANNELS 3 Xposition Yposition Zposition
        JOINT Head
        {
          OFFSET 0.012160 0.286546 0.202185
          CHANNELS 3 Xposition Yposition Zposition
          End Site
          {
            OFFSET 0.000000 0.050000 0.000000
          }
        }
      }
      JOINT LShoulder
      {
        OFFSET 0.008803 0.049185 -0.036640
        CHANNELS 3 Xposition Yposition Zposition
        JOINT LElbow
        {
          OFFSET 0.394840 -0.530923 -0.024830
          CHANNELS 3 Xposition Yposition Zposition
          JOINT LWrist
          {
            OFFSET -0.378398 0.464259 -0.036122
            CHANNELS 3 Xposition Yposition Zposition
            End Site
            {
              OFFSET 0.000000 0.050000 0.000000
            }
          }
        }
      }
      JOINT RShoulder
      {
        OFFSET 0.042392 -0.003032 0.056704
        CHANNELS 3 Xposition Yposition Zposition
        JOINT RElbow
        {
          OFFSET 0.227851 0.236565 0.040482
          CHANNELS 3 Xposition Yposition Zposition
          JOINT RWrist
          {
            OFFSET -0.172635 -0.008489 0.020346
            CHANNELS 3 Xposition Yposition Zposition
            End Site
            {
              OFFSET 0.000000 0.050000 0.000000
            }
          }
        }
      }
    }
  }
}
MOTION
Frames: 15
Frame Time: 0.033333
0.000003 0.847307 -0.000034 0.000000 0.000000 0.000000 -0.068426 0.630404 0.057283 -0.212945 1.090030 0.087212 -0.268569 1.225113 0.248699 0.068416 1.064162 -0.057263 -0.208975 1.534798 0.064450 -0.671865 1.054513 0.502697 -0.225209 0.798528 -0.122007 -0.335981 0.762351 -0.146674 0.054989 0.426555 -0.139319 0.067148 0.713101 0.062866 -0.327178 0.811535 -0.183314 0.067662 0.280612 -0.208145 -0.310737 0.744871 -0.244266 -0.293589 0.759319 -0.089970 -0.065738 0.995884 -0.049488 -0.238373 0.987395 -0.029143
0.000004 0.847308 -0.000020 0.000000 0.000000 0.000000 -0.062583 0.613671 0.055013 -0.208007 1.178423 0.084689 -0.298007 1.206962 0.253678 0.062567 1.080891 -0.054990 -0.254212 1.517712 0.075320 -0.787241 1.062274 0.500258 -0.232480 0.786112 -0.125350 -0.340896 0.764902 -0.134581 0.096824 0.476504 -0.115882 0.011766 0.799432 0.096209 -0.333941 0.811780 -0.180043 0.056200 0.365414 -0.190843 -0.361645 0.860011 -0.212391 -0.305025 0.723447 -0.072660 -0.103936 0.999675 -0.032442 -0.231186 0.924165 -0.007122
0.000004 0.847312 -0.000008 0.000000 0.000000 0.000000 -0.040468 0.620942 0.048216 -0.183359 1.281701 0.055534 -0.361362 1.159354 0.209819 0.040444 1.073617 -0.048191 -0.294368 1.440536 0.128598 -0.904726 1.060338 0.450805 -0.224221 0.758984 -0.130047 -0.315083 0.764594 -0.136061 0.118511 0.616253 -0.114021 -0.114659 0.937109 0.064425 -0.305802 0.803072 -0.187401 0.006687 0.556802 -0.183507 -0.435688 1.033951 -0.196823 -0.301328 0.664442 -0.077456 -0.164614 0.991172 -0.036974 -0.213372 0.798276 0.006605
0.000003 0.847321 0.000008 0.000000 0.000000 0.000000 -0.020977 0.652131 0.044374 -0.152278 1.317084 0.021931 -0.439781 1.108407 0.170428 0.020948 1.042428 -0.044351 -0.273412 1.326409 0.170558 -0.958752 0.988651 0.328057 -0.197368 0.731811 -0.137825 -0.268443 0.766662 -0.156803 0.086984 0.795197 -0.156879 -0.251684 1.076051 -0.045168 -0.233260 0.782496 -0.208854 -0.046106 0.734032 -0.194997 -0.465339 1.133926 -0.229284 -0.296347 0.625840 -0.105531 -0.228204 0.970721 -0.072897 -0.191283 0.699654 -0.021289
0.000003 0.847329 0.000034 0.000000 0.000000 0.000000 -0.021252 0.694317 0.044653 -0.133428 1.249822 0.009608 -0.471152 1.101826 0.180935 0.021225 1.000245 -0.044630 -0.179057 1.194699 0.138656 -0.896455 0.845726 0.200312 -0.159462 0.716795 -0.141395 -0.219459 0.761332 -0.166598 0.025052 0.928822 -0.206948 -0.324284 1.157976 -0.155620 -0.135049 0.730652 -0.225991 -0.053381 0.811280 -0.221422 -0.442430 1.104702 -0.288586 -0.297206 0.628587 -0.123438 -0.255729 0.944725 -0.110638 -0.155309 0.705719 -0.067257
0.000002 0.847334 0.000067 0.000000 0.000000 0.000000 -0.033823 0.741634 0.045277 -0.127820 1.102825 0.000537 -0.429738 1.128663 0.188508 0.033801 0.952930 -0.045251 -0.092739 1.029093 0.052790 -0.731344 0.683792 0.156939 -0.121604 0.706452 -0.134277 -0.180825 0.742495 -0.152329 -0.033634 0.996782 -0.226289 -0.304795 1.163535 -0.235741 -0.050045 0.649075 -0.227939 -0.036736 0.799378 -0.262381 -0.420876 0.984596 -0.330661 -0.298530 0.657485 -0.118502 -0.216306 0.888877 -0.128559 -0.084288 0.792557 -0.085991
0.000002 0.847336 0.000077 0.000000 0.000000 0.000000 -0.052385 0.791832 0.045138 -0.125170 0.950581 -0.017458 -0.373206 1.145060 0.151570 0.052369 0.902735 -0.045103 -0.106221 0.839332 -0.026956 -0.534777 0.521310 0.188781 -0.099233 0.701151 -0.121772 -0.164334 0.734983 -0.130899 -0.064467 1.014125 -0.223593 -0.218100 1.130950 -0.299882 0.004069 0.584965 -0.217184 -0.035943 0.732220 -0.298776 -0.425334 0.856171 -0.341635 -0.315443 0.710996 -0.105949 -0.124466 0.773148 -0.137327 0.007016 0.882865 -0.096939
0.000003 0.847336 0.000043 0.000000 0.000000 0.000000 -0.077604 0.836476 0.043113 -0.104380 0.868298 -0.039109 -0.361158 1.174375 0.091504 0.077591 0.858092 -0.043068 -0.198724 0.675201 -0.066527 -0.350974 0.418314 0.259893 -0.085928 0.710321 -0.106653 -0.163789 0.751897 -0.110613 -0.064771 0.960154 -0.210046 -0.110976 1.085531 -0.311614 0.037874 0.564057 -0.198378 -0.067344 0.623214 -0.300871 -0.450937 0.766817 -0.329237 -0.343807 0.777511 -0.092408 0.001387 0.597687 -0.152059 0.101435 0.948556 -0.148887
0.000003 0.847333 -0.000019 0.000000 0.000000 0.000000 -0.098162 0.866696 0.043135 -0.077023 0.891549 -0.056315 -0.392963 1.267923 0.043892 0.098149 0.827874 -0.043084 -0.307551 0.602076 -0.051120 -0.195744 0.445288 0.351821 -0.080478 0.738703 -0.098774 -0.170886 0.788913 -0.093849 -0.067890 0.828980 -0.194468 -0.014278 1.033068 -0.242203 0.046651 0.585403 -0.186530 -0.123421 0.508935 -0.289881 -0.495407 0.710747 -0.314605 -0.359411 0.835859 -0.078625 0.126439 0.428254 -0.167727 0.181994 1.014831 -0.228275
0.000003 0.847327 -0.000069 0.000000 0.000000 0.000000 -0.098013 0.881739 0.047885 -0.079852 1.010686 -0.051505 -0.427279 1.413349 0.024969 0.097999 0.812833 -0.047833 -0.410330 0.630849 0.005288 -0.096113 0.619061 0.427528 -0.090776 0.781938 -0.101027 -0.186252 0.838697 -0.086065 -0.097980 0.702618 -0.190787 0.048529 0.996102 -0.166424 0.018236 0.654773 -0.177782 -0.177920 0.419075 -0.262605 -0.525332 0.674331 -0.280580 -0.352316 0.864140 -0.069713 0.214025 0.342919 -0.160928 0.217821 1.038086 -0.261009
0.000003 0.847320 -0.000082 0.000000 0.000000 0.000000 -0.075716 0.888094 0.051461 -0.125108 1.169379 -0.020832 -0.422118 1.544756 0.032142 0.075702 0.806480 -0.051411 -0.452307 0.732927 0.076172 -0.078568 0.895925 0.424315 -0.106546 0.834070 -0.101725 -0.203625 0.893283 -0.088358 -0.151023 0.657293 -0.203219 0.071413 0.983293 -0.148636 -0.034572 0.783063 -0.156879 -0.174248 0.380300 -0.185339 -0.485671 0.661203 -0.209729 -0.325619 0.858375 -0.069335 0.233146 0.376404 -0.126119 0.184776 0.997530 -0.230112
0.000003 0.847316 -0.000052 0.000000 0.000000 0.000000 -0.039505 0.891172 0.050508 -0.201515 1.279107 0.025705 -0.353235 1.604394 0.045394 0.039487 0.803403 -0.050461 -0.383548 0.878143 0.139258 -0.128419 1.183015 0.358514 -0.114915 0.891113 -0.105181 -0.209781 0.959578 -0.103346 -0.207115 0.690336 -0.228270 0.054270 0.991639 -0.175740 -0.093404 0.966713 -0.130480 -0.103706 0.410583 -0.084196 -0.386664 0.642540 -0.137026 -0.271915 0.845498 -0.086465 0.191755 0.506746 -0.102212 0.092785 0.935111 -0.189510
0.000003 0.847315 0.000010 0.000000 0.000000 0.000000 -0.001830 0.891799 0.047260 -0.293133 1.295339 0.082891 -0.235125 1.557697 0.047679 0.001804 0.802776 -0.047216 -0.254752 1.022328 0.161645 -0.183214 1.370724 0.278085 -0.111895 0.952711 -0.118948 -0.196710 1.050297 -0.133883 -0.243128 0.771727 -0.258265 0.003050 1.021276 -0.211124 -0.137423 1.172716 -0.114721 -0.030289 0.492973 -0.018854 -0.290778 0.586008 -0.112880 -0.194607 0.862304 -0.119365 0.133733 0.672615 -0.108073 -0.026661 0.882451 -0.163000
0.000002 0.847318 0.000075 0.000000 0.000000 0.000000 0.022491 0.884717 0.047822 -0.371747 1.236988 0.133325 -0.112086 1.436330 0.034660 -0.022523 0.809854 -0.047779 -0.144056 1.130491 0.124662 -0.181076 1.418045 0.212773 -0.093827 1.015033 -0.134576 -0.162214 1.150435 -0.167479 -0.223235 0.868107 -0.286397 -0.056152 1.043586 -0.238508 -0.142292 1.341069 -0.113244 0.003660 0.607575 -0.006147 -0.252599 0.541197 -0.153427 -0.113728 0.927143 -0.147435 0.112831 0.803265 -0.104672 -0.137751 0.826497 -0.118655
0.000002 0.847322 0.000107 0.000000 0.000000 0.000000 0.038949 0.865362 0.049512 -0.393397 1.137352 0.154399 -0.024826 1.345589 0.036632 -0.038980 0.829204 -0.049461 -0.061633 1.200960 0.057789 -0.118066 1.373767 0.196679 -0.067180 1.068714 -0.144186 -0.113881 1.234976 -0.189581 -0.147799 0.929159 -0.297554 -0.089401 1.056073 -0.245313 -0.122691 1.428238 -0.125311 0.005343 0.728264 -0.024567 -0.294798 0.552581 -0.226936 -0.030603 1.041574 -0.159669 0.142661 0.896625 -0.064658 -0.212106 0.776077 -0.052306
